<svg aria-hidden="true" style="position: absolute; width: 0; height: 0; overflow: hidden;" version="1.1" xmlns="http://www.w3.org/2000/svg" xmlns:xlink="http://www.w3.org/1999/xlink">
<defs>
<symbol id="icon-icon-calendar" viewBox="0 0 32 32">
<path fill="#7e88c3" style="fill: var(--color1, #7e88c3)" opacity="0.5" d="M28 4h-1.334v-2.666c0 0 0 0 0 0 0-0.736-0.596-1.333-1.332-1.334h-1.334c-0.737 0-1.334 0.597-1.334 1.334v0 2.666h-13.332v-2.666c0-0.737-0.597-1.334-1.334-1.334v0h-1.334c-0.736 0.001-1.332 0.598-1.332 1.334 0 0 0 0 0 0v0 2.666h-1.334c-2.206 0-4 1.794-4 4v20c0 2.206 1.794 4 4 4h24c2.206 0 4-1.794 4-4v-20c0-2.206-1.794-4-4-4zM29.334 28c0 0.734-0.6 1.334-1.334 1.334h-24c-0.736-0.001-1.333-0.598-1.334-1.334v-14.614h26.668v14.614z"></path>
</symbol>
<symbol id="icon-icon-check" viewBox="0 0 32 32">
<path fill="none" stroke="#fff" style="stroke: var(--color2, #fff)" stroke-linejoin="miter" stroke-linecap="butt" stroke-miterlimit="4" stroke-width="6.4" d="M4.8 17.6l6.797 6.797 17.107-17.101"></path>
</symbol>
<symbol id="icon-icon-delete" viewBox="0 0 32 32">
<path fill="#888eb0" style="fill: var(--color3, #888eb0)" d="M26.166 7.112v21.332c0 1.964-1.59 3.556-3.554 3.556h-14.224c-1.963 0-3.554-1.591-3.554-3.554 0-0.001 0-0.001 0-0.002v0-21.332h21.332zM19.946 0l1.776 1.778h6.222v3.556h-24.888v-3.556h6.22l1.782-1.778h8.888z"></path>
</symbol>
<symbol id="icon-icon-moon" viewBox="0 0 32 32">
<path fill="#7e88c3" style="fill: var(--color1, #7e88c3)" d="M31.203 18.147c-0.076-0.018-0.164-0.029-0.254-0.029-0.26 0-0.499 0.088-0.689 0.236l0.003-0.002c-1.034 0.885-2.24 1.605-3.557 2.101l-0.083 0.027c-1.197 0.466-2.582 0.736-4.030 0.736-0.035 0-0.070-0-0.105-0l0.005 0c-0.002 0-0.005 0-0.008 0-3.32 0-6.325-1.345-8.501-3.52l0 0c-2.173-2.176-3.517-5.18-3.517-8.498 0-0.003 0-0.005 0-0.008v0c0-1.392 0.245-2.741 0.656-3.968 0.448-1.307 1.104-2.494 1.962-3.515 0.144-0.177 0.231-0.406 0.231-0.655 0-0.33-0.153-0.624-0.392-0.815l-0.002-0.002c-0.188-0.146-0.427-0.234-0.687-0.234-0.090 0-0.178 0.011-0.262 0.031l0.008-0.002c-3.475 0.941-6.501 3.026-8.669 5.808-2.067 2.684-3.312 6.092-3.312 9.792 0 0.008 0 0.016 0 0.024v-0.001c0 4.459 1.8 8.507 4.744 11.451 2.911 2.93 6.943 4.744 11.398 4.744 0.018 0 0.036-0 0.055-0h-0.003c3.763 0 7.238-1.309 10.019-3.477 2.805-2.218 4.84-5.302 5.704-8.845l0.023-0.11c0.029-0.089 0.046-0.192 0.046-0.299 0-0.474-0.332-0.87-0.776-0.968l-0.007-0.001z"></path>
</symbol>
<symbol id="icon-plus" viewBox="0 0 32 32">
  <path d="M31 12h-11v-11c0-0.552-0.448-1-1-1h-6c-0.552 0-1 0.448-1 1v11h-11c-0.552 0-1 0.448-1 1v6c0 0.552 0.448 1 1 1h11v11c0 0.552 0.448 1 1 1h6c0.552 0 1-0.448 1-1v-11h11c0.552 0 1-0.448 1-1v-6c0-0.552-0.448-1-1-1z"></path>
</symbol>
<symbol id="icon-icon-sun" viewBox="0 0 32 32">
<path fill="#858bb2" style="fill: var(--color5, #858bb2)" d="M15.707 25.888c0.785 0 1.432 0.589 1.524 1.349l0.001 0.007 0.011 0.179v2.456c-0.003 0.846-0.69 1.53-1.536 1.53-0.783 0-1.429-0.586-1.524-1.343l-0.001-0.008-0.010-0.179v-2.456c0-0.848 0.688-1.536 1.536-1.536zM8.507 22.907c0.555 0.554 0.597 1.424 0.128 2.026l-0.128 0.144-1.736 1.739c-0.278 0.276-0.66 0.446-1.082 0.446-0.848 0-1.536-0.688-1.536-1.536 0-0.354 0.12-0.681 0.322-0.941l-0.003 0.003 0.128-0.144 1.738-1.738c0.278-0.278 0.662-0.45 1.086-0.45s0.808 0.172 1.086 0.45v0zM25.077 22.907l1.738 1.738c0.278 0.278 0.45 0.662 0.45 1.086 0 0.848-0.687 1.535-1.535 1.535-0.424 0-0.808-0.172-1.086-0.45l-1.736-1.738c-0.278-0.278-0.45-0.662-0.45-1.086 0-0.848 0.687-1.535 1.535-1.535 0.424 0 0.807 0.172 1.085 0.449v0zM15.707 7.84c4.344 0.005 7.863 3.525 7.869 7.868v0.001c-0.005 4.344-3.525 7.863-7.868 7.869h-0.001c-4.343-0.006-7.862-3.526-7.867-7.868v-0.001c0.005-4.343 3.524-7.862 7.867-7.869h0.001zM29.88 14.173c0.015-0.001 0.032-0.001 0.050-0.001 0.848 0 1.536 0.688 1.536 1.536s-0.688 1.536-1.536 1.536c-0.017 0-0.035-0-0.052-0.001l0.003 0h-2.456c-0.848 0-1.536-0.688-1.536-1.536s0.688-1.536 1.536-1.536v0h2.456zM3.992 14.173c0.841 0.010 1.518 0.694 1.518 1.536 0 0.779-0.58 1.422-1.331 1.522l-0.008 0.001-0.179 0.011h-2.456c-0.846-0.003-1.53-0.69-1.53-1.536 0-0.783 0.586-1.429 1.343-1.524l0.008-0.001 0.179-0.010h2.454zM26.814 4.6c0.278 0.278 0.449 0.662 0.449 1.086s-0.172 0.808-0.449 1.086v0l-1.738 1.738c-0.282 0.305-0.683 0.495-1.129 0.495-0.848 0-1.536-0.688-1.536-1.536 0-0.447 0.191-0.849 0.495-1.129l0.001-0.001 1.736-1.738c0.278-0.278 0.662-0.449 1.086-0.449s0.808 0.172 1.086 0.449v0zM6.627 4.472l0.144 0.128 1.738 1.738c0.279 0.278 0.452 0.663 0.452 1.088 0 0.848-0.688 1.536-1.536 1.536-0.358 0-0.687-0.122-0.948-0.327l0.003 0.002-0.144-0.128-1.738-1.738c-0.282-0.278-0.457-0.665-0.457-1.092 0-0.847 0.687-1.534 1.534-1.534 0.36 0 0.691 0.124 0.953 0.332l-0.003-0.002zM15.707 0c0.848 0 1.536 0.688 1.536 1.536v2.456c0 0.848-0.688 1.536-1.536 1.536s-1.536-0.688-1.536-1.536v0-2.456c0-0.848 0.688-1.536 1.536-1.536z"></path>
</symbol>
<symbol id="icon-icon-arrow-down" viewBox="0 0 32 32">
<path fill="none" stroke="#7c5dfa" style="stroke: var(--color4, #7c5dfa)" stroke-linejoin="miter" stroke-linecap="butt" stroke-miterlimit="4" stroke-width="5.8182" d="M2.909 8.727l12.3 12.3 12.3-12.3"></path>
</symbol>
<symbol id="icon-icon-arrow-left" viewBox="0 0 32 32">
<path fill="none" stroke="#9277ff" style="stroke: var(--color6, #9277ff)" stroke-linejoin="miter" stroke-linecap="butt" stroke-miterlimit="4" stroke-width="6.4" d="M25.094 2.835l-13.53 13.53 13.53 13.53"></path>
</symbol>
<symbol id="icon-icon-arrow-right" viewBox="0 0 32 32">
<path fill="none" stroke="#7c5dfa" style="stroke: var(--color4, #7c5dfa)" stroke-linejoin="miter" stroke-linecap="butt" stroke-miterlimit="4" stroke-width="6.4" d="M8 3.2l12.8 12.8-12.8 12.8"></path>
</symbol>
</defs>
</svg>
